<svg xmlns="http://www.w3.org/2000/svg" viewBox="0 0 486.392 486.392"><path d="M455.992 60.8H30.4C13.62 60.8 0 74.417 0 91.197v303.995c0 16.78 13.62 30.4 30.4 30.4H455.99c16.78 0 30.4-13.62 30.4-30.4V91.198c0-16.78-13.62-30.4-30.4-30.4zM30.4 177.684l116.672 79.312L30.4 373.7V177.686zM51.89 395.193L172.67 274.416l70.587 47.97 70.192-48.335L434.5 395.164l-382.608.03zm404.1-21.492l-117.16-117.16 117.16-80.588v197.75zm0-233.315l-.638-.912-212.158 146.13L30.4 140.963V91.197H455.99v49.187z" fill="#010002"/></svg>