<svg xmlns="http://www.w3.org/2000/svg" width="47.175" height="47.174" viewBox="0 0 47.175 47.174"><path d="M15.825 40.675c-3.93 0-7.077-1.764-7.918-5.563-.964-4.353-1.43-8.932.73-13.22.77-1.53 2.104-2.544 3.524-3.392 1.512-.903 2.47-1.98 2.132-3.89-.117-.665.148-1.392.055-2.064-.046-.334-.508-.61-.782-.914-.222.315-.665.654-.633.94.32 2.874-1.403 4.32-3.697 5.303a23.628 23.628 0 0 1-4.022 1.32c-1.3.298-2.582-.025-3.645-.858-2.212-1.733-2.093-5.033.414-6.636 1.7-1.087 3.626-1.87 5.528-2.587 4.9-1.85 10.055-2.504 15.236-2.616 3.143-.068 6.305.407 9.448.748 4.142.45 8.044 1.79 11.747 3.64 1.012.506 2.04 1.346 2.606 2.302 1.754 2.965-.36 6.26-3.936 6.052-2.667-.157-5.136-1.145-7.145-3.02-.92-.86-1.383-1.912-1.222-3.2.032-.257.078-.586-.046-.773-.174-.263-.482-.53-.772-.585-.147-.027-.47.38-.553.64-.094.298-.018.653.003.98.033.527.218 1.086.1 1.573-.437 1.797.55 2.706 1.914 3.535 1.947 1.183 3.574 2.687 4.41 4.91.696 1.846.775 10.116.058 11.926-1.278 3.224-3.895 5.582-7.994 5.455-1.32-.04-13-.006-15.54-.005zm7.723-8.896c3.002-.143 5.66-.973 7.733-3.156 2.083-2.195 2.247-4.697.59-7.208-.97-1.47-2.365-2.338-3.95-2.993-4.04-1.67-8.92-.84-11.785 2.03-2.522 2.527-2.58 5.808-.058 8.338 2.063 2.07 4.688 2.84 7.47 2.99zm.1-20.986v.006c-1.35 0-2.698.025-4.046-.01-.848-.02-1.215.356-1.195 1.177.006.23-.046.466-.01.69.055.333.164.658.25.987.32-.12.68-.184.956-.37 2.05-1.383 5.967-1.366 8 .033.273.19.633.255.952.378.086-.36.195-.717.247-1.082.032-.223-.032-.458-.04-.688-.026-.823-.443-1.155-1.266-1.13-1.28.036-2.563.01-3.848.01z"/><path d="M24.112 27.844c-1.897-.097-3.226-.41-4.33-1.356-1.804-1.55-1.79-3.724.023-5.274 1.96-1.678 5.47-1.732 7.438-.115 2.166 1.78 1.97 4.525-.507 5.855-.932.5-2.028.694-2.624.89z"/></svg>